<svg width="220" height="220" viewBox="0 0 220 220" fill="none" xmlns="http://www.w3.org/2000/svg">
<path d="M128.617 1.58681C106.389 -2.23012 83.5253 0.877468 63.1227 10.4886C42.7201 20.0997 25.7649 35.7499 14.5538 55.319C3.34266 74.888 -1.58244 97.4303 0.445673 119.892C2.47378 142.354 11.3571 163.649 25.8921 180.893C40.4272 198.138 59.9116 210.498 81.7057 216.299C103.5 222.1 126.551 221.062 147.735 213.325C168.919 205.588 187.214 191.527 200.14 173.046C213.066 154.565 219.999 132.557 220 110.004L169.951 110.002C169.951 122.294 166.172 134.288 159.127 144.361C152.082 154.433 142.112 162.097 130.566 166.313C119.02 170.53 106.457 171.096 94.5793 167.934C82.7013 164.772 72.0821 158.036 64.1604 148.638C56.2386 139.239 51.3971 127.633 50.2918 115.391C49.1864 103.149 51.8707 90.8636 57.9808 80.1983C64.091 69.5329 73.3318 61.0034 84.4514 55.7653C95.571 50.5271 108.032 48.8334 120.146 50.9137L128.617 1.58681Z" fill="black"/>
<path d="M86.4285 110H220C220 128.17 217.545 135.536 212.737 149.286H117.296L86.4285 110Z" fill="#595959"/>
</svg>
